<?xml version="1.0" encoding="UTF-8"?>
<svg id="Camada_2" data-name="Camada 2" xmlns="http://www.w3.org/2000/svg" xmlns:xlink="http://www.w3.org/1999/xlink" viewBox="0 0 421.82 421.82">
  <defs>
    <style>
      .cls-1 {
        fill: url(#linear-gradient-2);
      }

      .cls-2 {
        fill: url(#linear-gradient-3);
      }

      .cls-3 {
        fill: url(#linear-gradient);
      }

      .cls-4 {
        fill: url(#linear-gradient-4);
      }
    </style>
    <linearGradient id="linear-gradient" x1="206.87" y1="210.91" x2="503.25" y2="210.91" gradientUnits="userSpaceOnUse">
      <stop offset="0" stop-color="#209dd9"/>
      <stop offset="1" stop-color="#2072b9"/>
    </linearGradient>
    <linearGradient id="linear-gradient-2" x1="206.87" y1="243.44" x2="503.25" y2="243.44" xlink:href="#linear-gradient"/>
    <linearGradient id="linear-gradient-3" x1="206.87" y1="165.18" x2="503.25" y2="165.18" xlink:href="#linear-gradient"/>
    <linearGradient id="linear-gradient-4" x1="206.87" y1="182.69" x2="503.25" y2="182.69" xlink:href="#linear-gradient"/>
  </defs>
  <g id="Layer_1" data-name="Layer 1">
    <g>
      <path class="cls-3" d="m210.91,301.85c-12.25,0-24.16-2.41-35.38-7.16-10.82-4.59-20.54-11.15-28.9-19.5-8.35-8.35-14.91-18.08-19.49-28.9-4.75-11.22-7.17-23.13-7.17-35.38s2.41-24.16,7.17-35.38c4.59-10.83,11.15-20.55,19.49-28.9,8.36-8.35,18.08-14.91,28.9-19.5,11.22-4.76,23.13-7.16,35.38-7.16s24.16,2.41,35.38,7.16c10.82,4.59,20.54,11.15,28.9,19.5,8.35,8.35,14.91,18.07,19.5,28.9,4.75,11.23,7.16,23.12,7.16,35.38s-2.41,24.15-7.16,35.38c-4.58,10.82-11.14,20.55-19.5,28.9-8.35,8.35-18.08,14.91-28.9,19.5-11.22,4.76-23.13,7.16-35.38,7.16Zm0-156.16c-8.79,0-17.32,1.72-25.35,5.13-7.76,3.29-14.74,7.99-20.75,14-6,6-10.71,12.97-14,20.75-3.4,8.03-5.13,16.55-5.13,25.35s1.73,17.32,5.13,25.35c3.29,7.77,8.01,14.75,14.01,20.75,6,6.01,12.98,10.71,20.75,14,16.06,6.81,34.64,6.81,50.7,0,7.76-3.29,14.74-7.99,20.74-14,6.01-6,10.72-12.98,14-20.75,3.41-8.03,5.13-16.56,5.13-25.35s-1.72-17.32-5.13-25.35c-3.29-7.77-8-14.75-14-20.75-6-6.01-12.98-10.72-20.74-14-8.03-3.4-16.56-5.13-25.35-5.13Z"/>
      <path class="cls-1" d="m381.56,283c-9.32,22.06-22.69,41.86-39.7,58.87-17.01,17.01-36.82,30.37-58.87,39.7-22.82,9.65-47.08,14.54-72.09,14.54s-49.25-4.89-72.09-14.54c-18.08-7.65-34.61-18.05-49.36-30.89l42.64-42.55c-3.35-2.73-6.59-5.63-9.68-8.72-11.52-11.52-20.56-24.91-26.87-39.82-6.54-15.42-9.85-31.79-9.85-48.67s3.31-33.26,9.85-48.68c6.32-14.91,15.35-28.3,26.87-39.81,11.51-11.52,24.9-20.56,39.81-26.87,3.27-1.39,6.6-2.6,9.96-3.69v-26.79c-6.78,1.8-13.46,4.05-19.99,6.81-17.97,7.61-34.1,18.51-47.97,32.36-13.86,13.86-24.75,30-32.36,47.96-7.89,18.62-11.88,38.38-11.88,58.72s4,40.1,11.88,58.7c5.95,14.05,13.93,26.95,23.74,38.55l-42.54,42.58c2.81,3.17,5.69,6.28,8.7,9.31,19.37,19.37,41.92,34.56,67.04,45.2,26.02,11,53.64,16.57,82.1,16.57s56.08-5.57,82.1-16.57c25.12-10.64,47.67-25.84,67.04-45.2,19.36-19.37,34.57-41.91,45.19-67.04,5.97-14.11,10.28-28.71,13.04-43.66h-26.19c-2.42,11.49-5.92,22.73-10.53,33.64Z"/>
      <path class="cls-2" d="m40.26,283c-9.66-22.82-14.55-47.08-14.55-72.09s4.89-49.26,14.55-72.08c9.33-22.06,22.68-41.86,39.7-58.87,17.01-17.02,36.82-30.37,58.87-39.7,18.84-7.97,38.66-12.64,59.08-14.04v60.16c4.29-.45,8.63-.67,13-.67,16.87,0,33.25,3.31,48.67,9.85,14.91,6.31,28.31,15.35,39.82,26.87,11.52,11.52,20.56,24.9,26.88,39.81,1.39,3.29,2.59,6.61,3.69,9.97h26.79c-1.8-6.78-4.05-13.46-6.82-20-7.61-17.96-18.5-34.1-32.36-47.96-13.86-13.86-30-24.75-47.97-32.36-14.69-6.23-30.11-9.99-45.95-11.31l-.03-60.14c-4.22-.25-8.46-.42-12.73-.42-28.47,0-56.09,5.57-82.1,16.58-25.12,10.62-47.67,25.83-67.04,45.2-19.37,19.36-34.57,41.91-45.19,67.03C5.58,154.81,0,182.44,0,210.91s5.58,56.1,16.58,82.1c5.58,13.19,12.46,25.66,20.51,37.35l18.54-18.54c-5.93-9.11-11.09-18.72-15.37-28.83Z"/>
      <path class="cls-4" d="m405.24,128.81c-10.62-25.12-25.83-47.67-45.19-67.03-19.37-19.37-41.92-34.58-67.04-45.2-14.11-5.97-28.71-10.28-43.65-13.03v26.17c11.48,2.43,22.73,5.92,33.64,10.53,22.05,9.33,41.86,22.68,58.87,39.7,17.01,17,30.37,36.81,39.7,58.87,7.98,18.85,12.66,38.7,14.05,59.13l-60.17-.05c.44,4.3.68,8.63.68,13,0,16.88-3.31,33.25-9.85,48.67-6.32,14.91-15.36,28.31-26.88,39.82-11.51,11.52-24.91,20.56-39.82,26.87-15.43,6.53-31.8,9.85-48.67,9.85s-33.25-3.31-48.68-9.85c-2.76-1.17-5.46-2.47-8.11-3.83l-18.94,18.94c5.48,3.2,11.14,6.06,17.03,8.56,18.62,7.88,38.37,11.88,58.71,11.88s40.09-4.01,58.71-11.88c17.97-7.61,34.1-18.51,47.97-32.36,13.86-13.87,24.75-30,32.36-47.97,6.23-14.69,9.99-30.09,11.32-45.94l60.15-.03c.25-4.23.42-8.48.42-12.74,0-28.48-5.58-56.1-16.58-82.1Z"/>
    </g>
  </g>
</svg>